<?xml version="1.0" encoding="UTF-8"?>
<svg version="1.1" xmlns="http://www.w3.org/2000/svg" width="4500" height="4500">
<path d="M0 0 C1.2817511 0.00182281 2.5635022 0.00364563 3.88409424 0.00552368 C22.61548883 0.05039157 41.02388921 0.41119478 59.5625 3.3125 C60.72120605 3.48942383 61.87991211 3.66634766 63.07373047 3.84863281 C155.05487907 18.25606824 236.30308785 61.20903417 301.9375 126.5625 C302.68676758 127.30709473 303.43603516 128.05168945 304.20800781 128.81884766 C308.86385488 133.48818692 313.27829077 138.30143422 317.5625 143.3125 C318.45158824 144.33353773 319.34089361 145.35438645 320.23046875 146.375 C339.09823922 168.37277271 355.46530786 192.65762484 369.34423828 218.0859375 C370.43999202 220.08859763 371.55710053 222.07703556 372.68359375 224.0625 C395.23241211 264.33303587 408.94324097 310.66686063 415.8125 356.125 C416.03921387 357.62365601 416.03921387 357.62365601 416.27050781 359.15258789 C419.06222139 378.86315703 419.93744125 398.42059941 419.875 418.3125 C419.87226578 420.12533478 419.87226578 420.12533478 419.86947632 421.97479248 C419.82307318 440.2739549 419.29401352 458.19202648 416.5625 476.3125 C416.31306641 478.04983398 416.31306641 478.04983398 416.05859375 479.82226562 C410.28988684 519.19903171 398.91305562 557.04681266 382.5625 593.3125 C382.14500488 594.24384766 381.72750977 595.17519531 381.29736328 596.13476562 C364.55728853 633.18737058 341.36686951 666.85630903 314.5625 697.3125 C313.7375 698.2509375 312.9125 699.189375 312.0625 700.15625 C306.04246468 706.8535393 299.72940967 713.24625725 293.375 719.625 C292.53130859 720.47336426 291.68761719 721.32172852 290.81835938 722.19580078 C285.89410574 727.10748268 280.86957091 731.81775648 275.5625 736.3125 C274.92707275 736.85463135 274.29164551 737.3967627 273.63696289 737.95532227 C203.28878384 797.60045886 114.438688 833.3943377 -41.4375 836.3125 C-69.60496289 833.70117876 -97.41170014 827.54417757 -124.4375 819.3125 C-125.31212891 819.04888672 -126.18675781 818.78527344 -127.08789062 818.51367188 C-165.02952487 806.93087764 -201.97270744 789.09721376 -234.4375 766.3125 C-234.97745605 765.93561035 -235.51741211 765.5587207 -236.07373047 765.17041016 C-253.30067406 753.12173163 -269.49027443 740.06291362 -284.88427734 725.74804688 C-286.52391084 724.23263585 -288.17654423 722.73244273 -289.83203125 721.234375 C-294.98831239 716.55452131 -300.04493927 711.90284503 -304.515625 706.546875 C-306.60429612 704.11858256 -308.78928884 701.80448962 -310.99243164 699.48046875 C-317.96930217 692.10064199 -324.30747365 684.40216012 -330.4375 676.3125 C-331.43731917 675.00897586 -332.43732377 673.70559394 -333.4375 672.40234375 C-350.18638249 650.45737653 -364.0371932 626.95755419 -376.4375 602.3125 C-377.04223145 601.12503174 -377.04223145 601.12503174 -377.65917969 599.91357422 C-421.2877666 513.79081805 -428.52604747 410.43988989 -398.86328125 290.62890625 C-390.96022032 266.51608111 -380.93259049 243.87985855 -369.4375 221.3125 C-368.98584473 220.4153125 -368.53418945 219.518125 -368.06884766 218.59375 C-362.64226452 207.90755552 -356.05489969 197.97374944 -349.4375 188 C-349.01811157 187.36687897 -348.59872314 186.73375793 -348.16662598 186.08145142 C-339.63753252 173.24963434 -330.31894908 161.13895628 -320.4375 149.3125 C-320.0233786 148.8136731 -319.6092572 148.31484619 -319.18258667 147.80090332 C-311.77325717 138.90052373 -303.96192786 130.52026073 -295.74633789 122.3605957 C-293.86561472 120.49066859 -291.99593181 118.61017362 -290.12695312 116.72851562 C-283.20031708 109.79430886 -276.1318804 103.3935818 -268.4375 97.3125 C-267.33532824 96.37812562 -266.23901464 95.43673231 -265.15234375 94.484375 C-205.97105646 42.87762659 -126.82693165 11.51548514 -49.4375 2.3125 C-48.72355072 2.22529694 -48.00960144 2.13809387 -47.27401733 2.04824829 C-31.52132855 0.17208814 -15.85031641 -0.04672475 0 0 Z M130.875 237.97265625 C129.04737524 238.47137107 127.21930284 238.96844784 125.39082336 239.46401978 C121.48519543 240.52604506 117.58276254 241.59885718 113.68252563 242.68051147 C107.46264221 244.40530553 101.23623016 246.10562639 95.00854492 247.80200195 C88.55745372 249.56042405 82.10681708 251.32042741 75.65849304 253.088974 C56.51686735 258.33867106 37.34715385 263.47931243 18.16781616 268.5892334 C10.16558993 270.72154651 2.16531142 272.86114768 -5.83505058 275.0004425 C-8.48383879 275.70870513 -11.13267096 276.41680316 -13.7815094 277.12487793 C-34.92569101 282.7776073 -56.06452507 288.45027839 -77.2025547 294.12596321 C-81.41104839 295.25596128 -85.61957752 296.3858273 -89.828125 297.515625 C-90.6738142 297.74265987 -91.5195034 297.96969475 -92.39081955 298.20360947 C-106.32083431 301.94292454 -120.25353679 305.67214411 -134.18708229 309.39827919 C-140.85447969 311.18151283 -147.52158548 312.96583654 -154.18870068 314.75012493 C-160.63564684 316.4753345 -167.08307497 318.19872769 -173.53086662 319.92077446 C-177.55309701 320.99549265 -181.57485241 322.07198014 -185.59648895 323.14891815 C-187.45457998 323.64610297 -189.31286344 324.14256935 -191.17136383 324.63822174 C-200.08733119 327.0164184 -208.99394117 329.42616823 -217.86303711 331.97436523 C-218.55366273 332.16850793 -219.24428835 332.36265062 -219.95584202 332.56267643 C-229.03504227 335.21021066 -235.82167149 339.96850231 -240.4375 348.3125 C-244.35862681 357.64002891 -244.39279908 365.29859812 -240.6953125 374.6328125 C-235.49902324 385.70316788 -227.25529025 389.88733117 -216.10015869 393.95169067 C-214.9095282 394.3749765 -213.71889771 394.79826233 -212.4921875 395.234375 C-211.21760974 395.69518895 -209.94334535 396.15687043 -208.66937256 396.61935425 C-205.96270202 397.60007725 -203.25410093 398.57517627 -200.54376221 399.54571533 C-196.25541777 401.08147019 -191.97179009 402.63008279 -187.68896484 404.18115234 C-183.35145389 405.75153173 -179.0137902 407.32146672 -174.67459106 408.88717651 C-162.78214161 413.17891809 -150.91594758 417.53915848 -139.0625 421.9375 C-135.44030503 423.28049034 -131.81788194 424.62286385 -128.1953125 425.96484375 C-127.28151825 426.30344925 -126.367724 426.64205475 -125.42623901 426.99092102 C-118.08434958 429.70891249 -110.73509655 432.40665202 -103.38416672 435.10007477 C-99.48719448 436.5283447 -95.59093857 437.9585682 -91.69462776 439.38864136 C-88.53619659 440.54762759 -85.37711514 441.70476502 -82.21710205 442.85943604 C-41.42303998 457.76713829 -41.42303998 457.76713829 -34.4375 471.3125 C-32.88474878 474.83529626 -31.57037886 478.41629494 -30.29296875 482.046875 C-29.74277069 483.56848488 -29.74277069 483.56848488 -29.18145752 485.12083435 C-27.98650379 488.43140092 -26.80593315 491.74690933 -25.625 495.0625 C-24.7831963 497.40058389 -23.94015979 499.73822424 -23.09594727 502.07543945 C-21.80155576 505.65957173 -20.5079593 509.24396938 -19.21824646 512.82978821 C-15.50767752 523.14570586 -11.72305612 533.43306424 -7.90963745 543.71133423 C-6.17284128 548.39253346 -4.43974716 553.07510171 -2.70703125 557.7578125 C-2.36160782 558.69117935 -2.01618439 559.6245462 -1.66029358 560.5861969 C1.3816971 568.81167819 4.40270115 577.04479505 7.4197998 585.2794342 C10.44744197 593.54244615 13.48550464 601.80157983 16.5291748 610.05870056 C18.4077603 615.15918025 20.27262155 620.26417091 22.11682129 625.37718201 C22.8666026 627.45012843 23.62329146 629.52038377 24.38330078 631.58959961 C25.25235683 633.95691573 26.11011304 636.32843399 26.95263672 638.70532227 C30.21675634 647.50296106 34.50012658 655.62540545 43.3125 659.8125 C51.72088848 663.57635469 59.38718263 664.48011234 68.1484375 661.37890625 C76.35515314 657.75360953 81.33135485 653.24018357 85.5625 645.3125 C87.4299752 640.18442486 88.79069347 634.94536237 90.15625 629.66796875 C90.57990521 628.08237318 91.00512278 626.49719437 91.4317627 624.91239929 C92.34688538 621.50173924 93.25192371 618.08862039 94.14941406 614.67327881 C95.57120704 609.26699131 97.02146276 603.86859515 98.4765625 598.47119141 C101.40540742 587.59517764 104.30852175 576.71238404 107.20857239 565.82866287 C108.67631807 560.32215123 110.14627937 554.8162312 111.61621094 549.31030273 C111.91525707 548.19015306 112.21430321 547.07000338 112.52241135 545.91590977 C113.13090073 543.63669587 113.73939966 541.35748452 114.34790802 539.07827568 C115.26756228 535.63336821 116.18699316 532.18840117 117.10638428 528.74342346 C123.05550087 506.45406919 129.02793212 484.17098631 135.00417709 461.88889313 C137.4212678 452.8765875 139.83766806 443.86409672 142.25390625 434.8515625 C142.51640985 433.87244274 142.77891346 432.89332298 143.04937172 431.88453293 C146.70698942 418.24126833 150.36096393 404.59703289 154.01080894 390.95168686 C154.52042291 389.04645585 155.03007768 387.14123576 155.53977394 385.23602676 C157.99573507 376.05580834 160.45072953 366.87533836 162.89856434 357.6929493 C164.05149907 353.36803768 165.2052152 349.04333484 166.359375 344.71875 C166.58156393 343.88612514 166.80375286 343.05350029 167.03267479 342.19564438 C169.89942401 331.45906738 172.80713398 320.73471894 175.76242638 310.02218437 C177.01773112 305.46554273 178.26271318 300.90606219 179.50991821 296.34719849 C180.46164064 292.88936851 181.43084904 289.43679131 182.40112305 285.98413086 C188.01304418 266.1895572 188.01304418 266.1895572 182.39453125 246.9765625 C177.76037244 240.23776441 171.48065073 235.47645131 163.5625 233.3125 C152.0396167 232.04719652 141.84733572 234.89256318 130.875 237.97265625 Z " fill="#FFDD00" transform="translate(1286.4375,1520.6875)"/>
<path d="M0 0 C235.62 0 471.24 0 714 0 C714 150.90909091 714 150.90909091 705 160 C697.61702189 165.90638249 691.06858003 168.30862416 681.57466507 168.25333309 C680.73668137 168.25643036 679.89869767 168.25952764 679.03532052 168.26271877 C676.22068164 168.27069498 673.40625465 168.26443249 670.59161377 168.25828552 C668.5559096 168.26113967 666.52020651 168.26487741 664.48450541 168.26942402 C658.88497095 168.27941962 653.28549902 168.27702766 647.68595982 168.27269709 C641.64900025 168.27022386 635.61205724 168.27928534 629.57510376 168.28707886 C619.11156216 168.2991318 608.64803341 168.3042565 598.18448639 168.30496025 C583.04500004 168.30613886 567.90555005 168.32134023 552.76607689 168.34045542 C545.7119552 168.34935478 538.65783276 168.35762427 531.60371017 168.36577702 C530.89752428 168.36659477 530.19133838 168.36741252 529.46375291 168.36825505 C512.65487513 168.38759376 495.84599368 168.40113359 479.03710938 168.41333008 C477.9339383 168.41413527 477.9339383 168.41413527 476.80848094 168.41495672 C459.65117083 168.42745079 442.49386026 168.43823137 425.33654785 168.44702148 C419.38582356 168.45009147 413.43509927 168.45318381 407.484375 168.45629883 C406.38270925 168.45687155 406.38270925 168.45687155 405.25878764 168.45745584 C388.48700688 168.46622051 371.71523385 168.477382 354.94346237 168.49742985 C354.2382997 168.49827251 353.53313703 168.49911518 352.8066058 168.49998338 C345.76605781 168.50846704 338.72551065 168.51746219 331.68496425 168.52717515 C328.2209939 168.53193658 324.75702336 168.53655208 321.29305267 168.54106331 C320.27046802 168.54239513 320.27046802 168.54239513 319.22722508 168.54375386 C308.25935275 168.55767973 297.29150517 168.56032614 286.32362532 168.55838365 C275.2990841 168.55658784 264.27458469 168.56546859 253.25005773 168.58469205 C247.27825984 168.59474197 241.3065621 168.59985979 235.33475876 168.59192467 C229.8670187 168.58474569 224.39947372 168.59132898 218.93175849 168.60881007 C216.95465656 168.61269208 214.97753682 168.61151847 213.00044265 168.60475319 C194.09654619 168.38619611 194.09654619 168.38619611 178.1875 177.75390625 C170.75150972 185.67013757 169.55115013 193.04399337 169.59594727 203.58154297 C169.58908401 204.71756958 169.58222076 205.85359619 169.57514954 207.02404785 C169.55691188 210.76355641 169.56071518 214.50264418 169.56640625 218.2421875 C169.5618428 220.85238786 169.55653674 223.46258701 169.55052185 226.07278442 C169.54051142 231.53830965 169.54377186 237.00371641 169.55395508 242.46923828 C169.56542769 248.76549177 169.55136812 255.06131886 169.5245586 261.35751617 C169.49963886 267.44014737 169.49723927 273.52258341 169.50367546 279.60525894 C169.50382843 282.18154738 169.49780439 284.75784413 169.48538399 287.33410263 C169.47043681 290.94294298 169.48118016 294.55085579 169.49829102 298.15966797 C169.48862305 299.214534 169.47895508 300.26940002 169.46899414 301.35623169 C169.55959669 310.52374405 171.87329435 318.63079773 178.22265625 325.46484375 C185.29253972 331.57135848 192.06782389 333.15227168 201.17923927 333.13028526 C202.01491529 333.13222869 202.8505913 333.13417212 203.71159083 333.13617444 C206.53036786 333.14151668 209.34909624 333.13972898 212.1678772 333.13803101 C214.20185443 333.14044814 216.23583118 333.14331011 218.26980722 333.14658034 C223.87384363 333.15434891 229.47786781 333.15595358 235.08190894 333.15663147 C241.12026325 333.15846846 247.15861035 333.16607381 253.19696045 333.17311096 C262.98556878 333.18389657 272.77417605 333.19206861 282.5627883 333.19799107 C299.0886411 333.20802284 315.61447324 333.22727586 332.14031364 333.24953346 C338.49821229 333.25806421 344.85611129 333.26633042 351.21401024 333.27463722 C351.92041065 333.27556223 352.62681106 333.27648724 353.35461754 333.27744028 C370.17374683 333.29943591 386.99287842 333.31922413 403.81201172 333.33789062 C404.91603145 333.33912014 404.91603145 333.33912014 406.04235461 333.3403745 C423.21052602 333.35945509 440.37869731 333.37641728 457.546875 333.38873291 C458.65406544 333.38952741 458.65406544 333.38952741 459.78362336 333.39033796 C465.73313093 333.39458951 471.68263857 333.39876584 477.63214621 333.40292276 C502.1657322 333.42012327 526.69928997 333.44733867 551.23285173 333.48608314 C554.69825774 333.49154491 558.16366394 333.4968779 561.62907028 333.50212479 C562.31108639 333.50315917 562.99310249 333.50419355 563.69578575 333.50525927 C574.66934419 333.52157946 585.64288286 333.5271127 596.61645227 333.52842245 C607.64796246 333.52992749 618.6794269 333.54232389 629.71091588 333.56517886 C635.68674764 333.57721571 641.66248149 333.58435393 647.63832474 333.57846642 C653.10984985 333.57317224 658.58117519 333.5816435 664.05266695 333.60102279 C666.03117271 333.60559863 668.00969799 333.60512746 669.98819979 333.59907441 C695.03646673 333.52928666 695.03646673 333.52928666 705 343 C712.86376064 351.45220532 714.45262717 360.31796964 714.40405273 371.58740234 C714.41434761 373.27462151 714.41434761 373.27462151 714.42485046 374.9959259 C714.44306464 378.69272697 714.43928821 382.38910144 714.43359375 386.0859375 C714.43815831 388.66989275 714.4434647 391.25384679 714.44947815 393.83779907 C714.45839889 399.24608893 714.45623395 404.65421677 714.44604492 410.0625 C714.43457285 416.28888769 714.44863298 422.51484417 714.4754414 428.74117506 C714.50037891 434.76133768 714.50275775 440.78128057 714.49632454 446.80150223 C714.4961717 449.34905336 714.5021846 451.89661295 714.51461601 454.44413376 C714.5295838 458.01434641 714.51880493 461.58362409 714.50170898 465.15380859 C714.51137695 466.19415756 714.52104492 467.23450653 714.53100586 468.30638123 C714.42695975 478.74439551 711.55464641 487.46256049 704.2890625 495.0546875 C696.8711893 501.35861387 689.28615257 503.15379424 679.80514336 503.12749195 C678.96777897 503.12913578 678.13041458 503.13077962 677.26767552 503.13247326 C674.44315342 503.13680776 671.61868244 503.13400706 668.79415894 503.13130188 C666.75605705 503.13300334 664.7179555 503.1351527 662.67985451 503.13771313 C658.23887634 503.14231744 653.79791211 503.14372958 649.35693169 503.14274788 C642.13184433 503.14115772 634.90677086 503.14635162 627.6816864 503.15237427 C617.87318078 503.1599662 608.06467692 503.16503231 598.25616905 503.16802987 C581.69674686 503.17317125 565.13734623 503.18863572 548.57793468 503.20760635 C545.05408318 503.21162791 541.53023157 503.2155488 538.00637996 503.21947271 C536.95265632 503.22064669 536.95265632 503.22064669 535.87764533 503.22184439 C534.45410854 503.22342997 533.03057174 503.2250148 531.60703495 503.22659888 C530.17821695 503.22819016 528.74939895 503.22978441 527.32058095 503.23138161 C510.46730293 503.25021544 493.61402346 503.26729971 476.76074219 503.28295898 C476.02323419 503.2836479 475.28572619 503.28433682 474.52586947 503.28504662 C450.61410461 503.30730554 426.70234599 503.31914617 402.79057244 503.32662554 C378.20716296 503.33439107 353.62379612 503.35545267 329.04041217 503.39216815 C325.5679789 503.39734177 322.0955454 503.40234913 318.62311172 503.40724754 C317.93971247 503.4082145 317.25631321 503.40918146 316.55220489 503.41017772 C305.55632167 503.4253168 294.56048117 503.42621341 283.56459039 503.42159041 C272.51066675 503.41720516 261.45681646 503.42743745 250.40291433 503.45167748 C244.41490282 503.46435575 238.42706909 503.47050229 232.43905067 503.45926094 C226.95637202 503.44910048 221.47403868 503.45732559 215.99140085 503.4801239 C214.00885756 503.48512232 212.02628332 503.48338247 210.04375504 503.47419123 C197.90784133 503.42235539 186.98036606 503.42166517 177.53515625 512.15234375 C172.97073543 517.64590875 169.88847489 524.64223415 169.85282898 531.77993774 C169.84209602 533.25591934 169.84209602 533.25591934 169.83114624 534.76171875 C169.82845734 535.84018066 169.82576843 536.91864258 169.82299805 538.02978516 C169.81314125 539.73513931 169.81314125 539.73513931 169.80308533 541.47494507 C169.78333726 545.24631819 169.77168535 549.01765144 169.76171875 552.7890625 C169.75764322 554.07692028 169.7535677 555.36477806 169.74936867 556.69166183 C169.73065238 562.80683794 169.7160895 568.92199407 169.7077567 575.03719294 C169.69799813 582.08147812 169.67171456 589.12544792 169.63125581 596.16962206 C169.59736432 602.2815769 169.58560394 608.39340001 169.58155251 614.50544357 C169.57668561 617.09931957 169.56506878 619.69319218 169.54651451 622.28700638 C169.5221261 625.92287398 169.52308838 629.55792302 169.5300293 633.19384766 C169.51081421 634.79332245 169.51081421 634.79332245 169.49121094 636.42510986 C169.53806485 643.17880016 170.76926272 648.0764753 174 654 C174.804375 655.5778125 174.804375 655.5778125 175.625 657.1875 C180.86668634 663.39476014 188.85716611 667.42689781 196.97198759 668.18397867 C199.16739622 668.25597509 201.3546168 668.26616432 203.55117607 668.25333309 C204.39061321 668.25643036 205.23005036 668.25952764 206.09492499 668.26271877 C208.9084769 668.27068156 211.72181605 668.26443763 214.53536987 668.25828552 C216.57264979 668.26114026 218.60992863 668.26487832 220.64720547 668.26942402 C226.24641123 668.27941157 231.84555438 668.2770298 237.44476485 668.27269709 C243.48305104 668.2702224 249.52132072 668.27928718 255.55960083 668.28707886 C266.02367267 668.29912787 276.48773167 668.30425629 286.95180893 668.30496025 C302.09094773 668.30613913 317.2300502 668.32134291 332.36917581 668.34045542 C339.42381098 668.34935442 346.47844689 668.357624 353.53308296 668.36577702 C354.59240156 668.36700364 354.59240156 668.36700364 355.67312053 668.36825505 C372.47983087 668.38759068 389.28654487 668.40113264 406.09326172 668.41333008 C406.82855697 668.41386687 407.56385223 668.41440366 408.32142916 668.41495672 C425.47775362 668.42745264 442.63407852 668.43823333 459.79040527 668.44702148 C465.74226889 668.45009154 471.6941325 668.45318385 477.64599609 668.45629883 C478.74788914 668.45687155 478.74788914 668.45687155 479.87204266 668.45745584 C496.64581103 668.46621974 513.41957168 668.47737887 530.19333076 668.49742985 C530.89846563 668.49827251 531.60360049 668.49911518 532.33010307 668.49998338 C539.37008377 668.50846674 546.41006364 668.51746183 553.45004275 668.52717515 C556.91361602 668.5319366 560.37718948 668.53655209 563.84076309 668.54106331 C564.52240712 668.54195119 565.20405115 668.54283907 565.90635106 668.54375386 C576.87529575 668.55768263 587.84421571 668.56032585 598.81316792 668.55838365 C609.8364496 668.55658846 620.85968944 668.56546204 631.88295685 668.58469205 C637.8546378 668.5947462 643.82621855 668.59985524 649.79790497 668.59192467 C655.26431927 668.58475134 660.73053827 668.59131621 666.19692768 668.60881007 C668.17465487 668.6126955 670.15239985 668.61151232 672.13011931 668.60475319 C674.81936163 668.59629111 677.50793917 668.60629751 680.19714165 668.62082577 C680.96404424 668.61397738 681.73094683 668.60712899 682.5210889 668.60007307 C692.11430739 668.70125311 698.85737972 671.88165457 705.76171875 678.453125 C740.91594497 718.45409445 714 784.74685758 714 838 C478.38 838 242.76 838 0 838 C0 561.46 0 284.92 0 0 Z " fill="#FFDD00" transform="translate(2833,1521)"/>
<path d="M0 0 C134.80031151 0 134.80031151 0 170.83163452 34.77679443 C173.20897612 37.29917339 175.53977885 39.80482717 177.82558823 42.40172577 C184.67952466 50.02650907 191.89715141 57.23799641 199.1968321 64.43338901 C211.473371 76.55361624 223.45615582 88.92696594 235.28070259 101.48736572 C246.93728612 113.86738168 258.71723989 126.1069791 270.67588615 138.19573975 C271.42728669 138.95545778 272.17868723 139.71517582 272.95285748 140.49791561 C276.77162514 144.35763828 280.59264688 148.21512123 284.41453933 152.07174945 C311.2780917 179.18750351 337.85200813 206.57091226 364.2590332 234.13085938 C389.8659797 260.85445336 415.6010052 287.44388894 441.51586914 313.86914062 C442.31869711 314.68788326 443.12152509 315.5066259 443.94868118 316.35017893 C452.01331473 324.57439377 460.08057819 332.79602469 468.14976868 341.0157684 C484.57830915 357.7509486 500.98929033 374.50330041 517.38963318 391.26611328 C518.52002695 392.42142518 518.52002695 392.42142518 519.67325695 393.60007671 C542.70772252 417.14415583 565.66695317 440.75976013 588.55238342 464.44873047 C589.20041295 465.1194545 589.84844248 465.79017854 590.51610927 466.48122755 C616.72402042 493.60924608 642.85197871 520.81428028 669 548 C669.495 411.875 669.495 411.875 670 273 C678.25 272.67 686.5 272.34 695 272 C699.34987633 271.65144467 703.61863388 271.28728595 707.9375 270.75 C708.99702881 270.62141602 710.05655762 270.49283203 711.14819336 270.36035156 C754.08509875 264.87971776 796.20711644 251.60463464 833.875 230.109375 C836 229 836 229 838 229 C838 429.97 838 630.94 838 838 C705.42779281 838 705.42779281 838 669.35374451 803.15974426 C666.96932589 800.63268101 664.6300936 798.12135324 662.33544731 795.52089882 C655.45982217 787.88771527 648.22666902 780.66001781 640.91308365 773.44903181 C628.61290731 761.30263478 616.60141689 748.90675347 604.7455616 736.32743835 C593.05701132 723.92757035 581.24711291 711.66549601 569.26168633 699.55207825 C568.50876196 698.79097386 567.75583759 698.02986948 566.98009734 697.24570133 C563.15364178 693.37896805 559.32496976 689.51443734 555.49544161 685.65074736 C528.57400998 658.48124369 501.93726303 631.04826455 475.46459961 603.44189453 C449.79299762 576.67221184 423.99447388 550.03536233 398.02124023 523.55810547 C396.38010769 521.88476659 394.73897894 520.211424 393.09785396 518.53807771 C379.75615838 504.93580844 366.40560864 491.34223522 353.05291694 477.75076123 C291.63111222 415.21788281 230.87632301 352.0735576 170 289 C169.67 470.17 169.34 651.34 169 838 C113.23 838 57.46 838 0 838 C0 561.46 0 284.92 0 0 Z " fill="#FFDD00" transform="translate(1828,1521)"/>
<path d="M0 0 C28.38 0 56.76 0 86 0 C97.41126444 20.54027599 97.41126444 20.54027599 101.5 28.9375 C104.79159932 35.66544323 108.20390155 42.31962645 111.703125 48.94140625 C116.52110587 58.0589283 121.23924222 67.22487076 125.92758179 76.40960693 C128.22104543 80.90211337 130.51857902 85.39253674 132.81640625 89.8828125 C133.26804642 90.76542755 133.71968658 91.6480426 134.18501282 92.55740356 C138.36886001 100.72903482 142.5910799 108.88030664 146.82543945 117.02587891 C151.55522747 126.12906767 156.24927929 135.25036094 160.9375 144.375 C166.44359208 155.0910193 171.95994252 165.80149534 177.5 176.5 C182.97528999 187.07464483 188.43093586 197.65924571 193.875 208.25 C194.2521817 208.9837384 194.6293634 209.71747681 195.01797485 210.47344971 C196.54333768 213.44079683 198.0686877 216.40815054 199.5940094 219.3755188 C215.65655913 250.62140772 231.77441607 281.83841982 248 313 C250.15020437 310.27258038 251.82258431 307.58230337 253.34765625 304.46484375 C253.78916016 303.57087891 254.23066406 302.67691406 254.68554688 301.75585938 C255.13994141 300.82580078 255.59433594 299.89574219 256.0625 298.9375 C259.93071443 291.04354204 263.95814677 283.24603244 268.06515503 275.4745636 C272.25624619 267.53580547 276.35750446 259.55252951 280.44320679 251.55914307 C282.61583255 247.30895358 284.79232653 243.0607457 286.96875 238.8125 C287.40112473 237.96841583 287.83349945 237.12433167 288.27897644 236.25466919 C292.06388512 228.86879451 295.87045664 221.49430875 299.6875 214.125 C304.9285426 204.00607813 310.15776908 193.88121538 315.375 183.75 C315.72944183 183.06174133 316.08388367 182.37348267 316.44906616 181.66436768 C318.24711205 178.17280335 320.04498499 174.68115001 321.84277344 171.18945312 C325.7471783 163.60649984 329.65375247 156.02466382 333.55993652 148.44262695 C334.62070052 146.38363335 335.68144986 144.32463219 336.7421875 142.265625 C337.09240967 141.58580566 337.44263184 140.90598633 337.8034668 140.20556641 C339.9490634 136.04055577 342.09414535 131.8752805 344.23884583 127.70980835 C351.9001563 112.82994898 359.57173379 97.95556148 367.26611328 83.09277344 C372.57668065 72.83108222 377.86061194 62.55576426 383.14138794 52.27871704 C389.14975636 40.58619421 395.17850698 28.90439652 401.23046875 17.234375 C401.80152344 16.13222656 402.37257813 15.03007812 402.9609375 13.89453125 C403.45384277 12.94425049 403.94674805 11.99396973 404.45458984 11.01489258 C406.32970136 7.35679587 408.16164668 3.67670665 410 0 C438.71 0 467.42 0 497 0 C497 139.59 497 279.18 497 423 C467.63 423 438.26 423 408 423 C407.505 309.645 407.505 309.645 407 194 C402.71 202.58 398.42 211.16 394 220 C388.828125 229.875 388.828125 229.875 386.40820312 234.4375 C382.55047274 241.72056793 378.81935502 249.06913478 375.07241821 256.40960693 C372.77895457 260.90211337 370.48142098 265.39253674 368.18359375 269.8828125 C367.73195358 270.76542755 367.28031342 271.6480426 366.81498718 272.55740356 C362.63113999 280.72903482 358.4089201 288.88030664 354.17456055 297.02587891 C349.44477253 306.12906767 344.75072071 315.25036094 340.0625 324.375 C333.95919778 336.25331651 327.83909351 348.12264113 321.69702148 359.98095703 C318.24808915 366.64321751 314.80970908 373.31075073 311.3828125 379.984375 C310.98733215 380.75434814 310.59185181 381.52432129 310.18438721 382.31762695 C307.95054501 386.66718368 305.71831092 391.01755618 303.48913574 395.36950684 C298.73089569 404.62220493 293.86974069 413.80160092 289 423 C262.27 423 235.54 423 208 423 C202.13215111 411.85108711 196.27400682 400.70617194 190.52554321 389.49664307 C189.38862006 387.27968598 188.25048311 385.06335545 187.11206055 382.84716797 C185.91892478 380.52445931 184.72584277 378.2017233 183.53309631 375.8788147 C179.46577885 367.95767463 175.3903917 360.04070055 171.3125 352.125 C170.78484039 351.10061829 170.78484039 351.10061829 170.246521 350.05554199 C164.75469177 339.3946542 159.24695237 328.74207726 153.73364258 318.09228516 C148.4184488 307.82169588 143.13033245 297.53725627 137.84451294 287.25152588 C132.14730446 276.165971 126.43155978 265.09025003 120.69897461 254.02294922 C117.23722202 247.33617668 113.78661531 240.6438386 110.34765625 233.9453125 C109.75088577 232.78325287 109.75088577 232.78325287 109.14205933 231.59771729 C107.20644885 227.82830088 105.27207017 224.05826156 103.33984375 220.28710938 C102.6237428 218.89190405 101.90759886 217.49672078 101.19140625 216.1015625 C100.88662857 215.5055423 100.58185089 214.90952209 100.26783752 214.29544067 C96.59655867 207.15009723 92.78189399 200.09105123 89 193 C88.67 268.9 88.34 344.8 88 423 C58.96 423 29.92 423 0 423 C0 283.41 0 143.82 0 0 Z " fill="#FFDD00" transform="translate(2952,2490)"/>
<path d="M0 0 C127.71 0 255.42 0 387 0 C387 24.42 387 48.84 387 74 C288.33 74 189.66 74 88 74 C88 107.33 88 140.66 88 175 C186.67 175 285.34 175 387 175 C387 199.42 387 223.84 387 249 C288.33 249 189.66 249 88 249 C88 282 88 315 88 349 C186.67 349 285.34 349 387 349 C387 373.42 387 397.84 387 423 C259.29 423 131.58 423 0 423 C0 283.41 0 143.82 0 0 Z " fill="#FFDD00" transform="translate(2502,2490)"/>
<path d="M0 0 C212.67411428 0 212.67411428 0 238.5625 3.75 C239.74827637 3.91991455 240.93405273 4.0898291 242.15576172 4.26489258 C293.54591987 11.9580912 346.67156916 31.08924108 379 74 C379.79921875 75.03382813 380.5984375 76.06765625 381.421875 77.1328125 C418.4836724 126.14862957 423.03762094 195.31577478 415.59326172 254.21826172 C409.02242418 301.20375229 390.69765931 346.41696461 351.95605469 375.89746094 C343.37510147 382.30994222 334.41263893 387.89428351 325 393 C324.36497559 393.34627441 323.72995117 393.69254883 323.07568359 394.04931641 C297.05773426 407.93503436 266.58779576 415.09873781 237.625 419.25 C236.05286743 419.47695557 236.05286743 419.47695557 234.44897461 419.70849609 C156.95923073 429.90224167 78.15735957 423 0 423 C0 283.41 0 143.82 0 0 Z M88 74 C88 164.75 88 255.5 88 349 C197.81798568 356.19097903 197.81798568 356.19097903 300.3203125 312.7421875 C327.39860048 285.03233595 332.30672915 245.41562846 332.06469727 208.23730469 C331.31280335 170.61423562 324.7730167 134.14001347 297 107 C246.22538407 60.14368241 141.26174956 74 88 74 Z " fill="#FFDD00" transform="translate(2009,2490)"/>
<path d="M0 0 C1.23938828 -0.00101212 1.23938828 -0.00101212 2.5038147 -0.00204468 C65.87706644 0.07928981 131.39869094 15.14501165 178.125 60.25 C178.6826001 60.78351074 179.2402002 61.31702148 179.81469727 61.86669922 C208.7782131 90.10762424 220.44298619 126.65991373 222.125 166.25 C222.125 171.2 222.125 176.15 222.125 181.25 C193.745 181.25 165.365 181.25 136.125 181.25 C135.465 173 134.805 164.75 134.125 156.25 C131.0787818 141.78046355 126.01156043 130.2902883 116.125 119.25 C115.03251953 118.01636719 115.03251953 118.01636719 113.91796875 116.7578125 C92.85720773 94.3349127 61.64564804 84.88341543 32.125 80.25 C31.38491699 80.13140625 30.64483398 80.0128125 29.88232422 79.890625 C-8.13088579 74.05179594 -48.0980127 79.62147973 -81.875 98.25 C-82.51566406 98.59933594 -83.15632813 98.94867187 -83.81640625 99.30859375 C-93.44139597 104.61692142 -101.8024466 110.80342812 -109.875 118.25 C-110.83277344 119.12527344 -111.79054688 120.00054688 -112.77734375 120.90234375 C-130.54506 137.87263094 -142.29075261 160.3145174 -148.625 183.875 C-148.82383789 184.61403564 -149.02267578 185.35307129 -149.22753906 186.11450195 C-152.3380318 198.33639089 -153.25250369 210.37996937 -153.1875 222.9375 C-153.18534485 223.68767395 -153.1831897 224.4378479 -153.18096924 225.21075439 C-153.12910745 236.46656077 -152.69570278 247.3097948 -149.875 258.25 C-149.68695801 259.01812012 -149.49891602 259.78624023 -149.30517578 260.57763672 C-143.26680914 284.67826155 -132.028763 305.3219352 -114.875 323.25 C-113.7921875 324.44496094 -113.7921875 324.44496094 -112.6875 325.6640625 C-86.13704949 353.9187649 -44.93331582 367.25325859 -7.00390625 368.46875 C37.81614705 369.38883011 82.9287935 355.04056208 115.875 323.9375 C134.06632189 304.93315814 138.74063916 285.55285595 140.125 259.25 C168.835 259.25 197.545 259.25 227.125 259.25 C227.125 279.28313253 227.125 279.28313253 226.375 286.25 C226.28702148 287.08047852 226.19904297 287.91095703 226.10839844 288.76660156 C221.45201456 329.07582571 198.19576251 365.37446444 166.9453125 390.70703125 C158.37986104 397.4494667 149.49007363 403.67274224 140.125 409.25 C139.45952148 409.64783691 138.79404297 410.04567383 138.10839844 410.45556641 C96.8618021 434.84758911 48.91051245 446.46271837 1.1875 446.5 C0.01205627 446.50101212 0.01205627 446.50101212 -1.18713379 446.50204468 C-61.08766743 446.42093411 -121.1326144 428.99379566 -166.875 389.25 C-167.42236816 388.7770752 -167.96973633 388.30415039 -168.53369141 387.81689453 C-210.82560124 350.98959623 -235.15292356 298.35444076 -239.64794922 242.796875 C-241.53480639 213.32132555 -238.82168055 184.67408507 -230.875 156.25 C-230.54508057 155.04754639 -230.54508057 155.04754639 -230.20849609 153.82080078 C-222.31792281 125.77555301 -206.87260543 100.11494215 -187.875 78.25 C-187.4020752 77.70263184 -186.92915039 77.15526367 -186.44189453 76.59130859 C-145.02885155 29.03319924 -83.43937221 4.93365578 -21.51098633 0.44628906 C-14.34372425 0.05936375 -7.17648202 0.00532427 0 0 Z " fill="#FFDD00" transform="translate(1202.875,2478.75)"/>
<path d="M0 0 C1.11669571 0.00539291 1.11669571 0.00539291 2.25595093 0.01089478 C3.0363826 0.01074875 3.81681427 0.01060272 4.62089539 0.01045227 C7.21273534 0.01115158 9.80450432 0.01894481 12.39633179 0.02676392 C14.18852194 0.02862803 15.9807126 0.03005196 17.77290344 0.03105164 C22.49938351 0.03487733 27.22583305 0.04470805 31.95230103 0.05575562 C36.77153104 0.06596863 41.59076596 0.07054902 46.41000366 0.07559204 C55.87290773 0.08633027 65.3357891 0.10340731 74.79867554 0.12442017 C86.8403422 23.49942017 98.88200887 46.87442017 110.92367554 70.24942017 C111.27429047 70.93002502 111.6249054 71.61062988 111.98614502 72.31185913 C112.69458203 73.68706158 113.40301709 75.06226503 114.1114502 76.43746948 C115.88068134 79.87188028 117.6499462 83.30627371 119.41928101 86.7406311 C122.62594539 92.96499062 125.83235304 99.18948176 129.03752136 105.41461182 C136.09190528 119.11569349 143.15139422 132.81402839 150.23617554 146.49942017 C156.88370494 159.34115784 163.49948686 172.19909177 170.11013794 185.05984497 C170.48817566 185.79529541 170.86621338 186.53074585 171.25570679 187.28848267 C171.63390564 188.02425537 172.01210449 188.76002808 172.40176392 189.51809692 C176.38380233 197.26415487 180.37190892 205.00708289 184.36117554 212.74942017 C184.88418243 213.76449646 184.88418243 213.76449646 185.41775513 214.80007935 C187.17502715 218.21063919 188.93238426 221.62115518 190.68978882 225.03164673 C193.87209438 231.2074692 197.05359715 237.38370524 200.23516846 243.55990601 C202.00630536 246.99809394 203.77749299 250.43625575 205.54867554 253.87442017 C206.25700911 255.24942004 206.96534245 256.62442004 207.67367554 257.99942017 C208.02430054 258.68004517 208.37492554 259.36067017 208.73617554 260.06192017 C209.79867554 262.12442017 210.86117554 264.18692017 211.92367554 266.24942017 C212.27429047 266.93002502 212.6249054 267.61062988 212.98614502 268.31185913 C213.69458203 269.68706158 214.40301709 271.06226503 215.1114502 272.43746948 C216.88068134 275.87188028 218.6499462 279.30627371 220.41928101 282.7406311 C223.62594539 288.96499062 226.83235304 295.18948176 230.03752136 301.41461182 C237.09190521 315.11569335 244.15134148 328.81405579 251.23617554 342.49942017 C257.53629829 354.66900308 263.80897209 366.85257049 270.06747437 379.04360962 C273.78382433 386.28007776 277.51362006 393.50902214 281.27523804 400.72207642 C281.98231969 402.08012309 282.68935208 403.43819542 283.39633179 404.79629517 C284.72007007 407.33898367 286.04895725 409.87888916 287.38070679 412.41738892 C287.9646521 413.53887329 288.54859741 414.66035767 289.15023804 415.81582642 C289.66409058 416.79752808 290.17794312 417.77922974 290.70736694 418.79067993 C291.79867554 421.12442017 291.79867554 421.12442017 291.79867554 423.12442017 C260.44867554 423.12442017 229.09867554 423.12442017 196.79867554 423.12442017 C179.04673001 388.88852522 179.04673001 388.88852522 173.60507202 378.35366821 C172.97301724 377.13010371 172.34093688 375.90655243 171.70883179 374.68301392 C171.39661179 374.07861984 171.08439178 373.47422577 170.76271057 372.85151672 C168.6617057 368.78697712 166.55222272 364.72692016 164.43856812 360.66894531 C162.94014631 357.79095998 161.44486458 354.91134945 159.94998169 352.03152466 C159.22752334 350.64168635 158.50361874 349.25259881 157.77822876 347.86428833 C156.77223243 345.93857223 155.77124162 344.01033309 154.77133179 342.08145142 C154.19649048 340.97777222 153.62164917 339.87409302 153.02938843 338.73696899 C151.79867554 336.12442017 151.79867554 336.12442017 151.79867554 334.12442017 C73.91867554 334.45442017 -3.96132446 334.78442017 -84.20132446 335.12442017 C-94.92834529 355.80765238 -94.92834529 355.80765238 -105.63882446 376.49942017 C-106.24299194 377.66714966 -106.84715942 378.83487915 -107.46963501 380.03799438 C-110.43464457 385.76909096 -113.39680103 391.50162915 -116.35176086 397.23791504 C-117.73757029 399.92770253 -119.12467753 402.6168197 -120.51190186 405.30587769 C-121.17472618 406.59163292 -121.83690696 407.87772013 -122.49841309 409.16415405 C-123.41471173 410.94600338 -124.33335513 412.72664636 -125.25210571 414.50723267 C-125.77457886 415.52188599 -126.297052 416.53653931 -126.83535767 417.5819397 C-128.20132446 420.12442017 -128.20132446 420.12442017 -130.20132446 423.12442017 C-133.19167752 423.4104896 -135.97397885 423.50240915 -138.96548462 423.46499634 C-139.87285873 423.46543442 -140.78023285 423.4658725 -141.71510315 423.46632385 C-144.7237476 423.46422855 -147.73183948 423.44086261 -150.74038696 423.41738892 C-152.82260839 423.4117956 -154.90483376 423.40752426 -156.98706055 423.40452576 C-162.47479093 423.3930562 -167.96228415 423.36357084 -173.44992065 423.33041382 C-179.04671012 423.2997584 -184.6435378 423.28603012 -190.24038696 423.27090454 C-201.22747049 423.23870318 -212.21437778 423.18748136 -223.20132446 423.12442017 C-221.79107042 420.13086675 -220.37824273 417.13853458 -218.96499634 414.14639282 C-218.37413239 412.89204185 -218.37413239 412.89204185 -217.77133179 411.61235046 C-213.92742772 403.47993372 -209.84396032 395.48261632 -205.70132446 387.49942017 C-204.91983577 385.98737852 -204.13867509 384.4751673 -203.3578186 382.96279907 C-201.75784172 379.86485048 -200.15627771 376.76773101 -198.55337524 373.67129517 C-195.25516462 367.29817703 -191.97202285 360.91730876 -188.68783569 354.53695679 C-186.93416309 351.13072809 -185.17901599 347.72525939 -183.42398071 344.31973267 C-180.57659241 338.79422316 -177.73035061 333.26812463 -174.88491821 327.74160767 C-168.18942515 314.73821749 -161.48790221 301.73805512 -154.76382446 288.74942017 C-148.11629506 275.9076825 -141.50051314 263.04974857 -134.88986206 250.18899536 C-134.51182434 249.45354492 -134.13378662 248.71809448 -133.74429321 247.96035767 C-133.36609436 247.22458496 -132.98789551 246.48881226 -132.59823608 245.73074341 C-128.61619767 237.98468547 -124.62809108 230.24175745 -120.63882446 222.49942017 C-120.2901532 221.82270264 -119.94148193 221.14598511 -119.58224487 220.44876099 C-117.82497285 217.03820114 -116.06761574 213.62768516 -114.31021118 210.2171936 C-111.12790562 204.04137113 -107.94640285 197.86513509 -104.76483154 191.68893433 C-102.99369464 188.25074639 -101.22250701 184.81258459 -99.45132446 181.37442017 C-98.74299089 179.99942029 -98.03465755 178.62442029 -97.32632446 177.24942017 C-93.07632445 168.99942014 -93.07632445 168.99942014 -92.01385498 166.9369812 C-91.30541797 165.56177875 -90.59698291 164.1865753 -89.8885498 162.81137085 C-88.11931866 159.37696005 -86.3500538 155.94256663 -84.58071899 152.50820923 C-81.37405461 146.28384971 -78.16764696 140.05935857 -74.96247864 133.83422852 C-67.90809472 120.13314684 -60.84860578 106.43481194 -53.76382446 92.74942017 C-48.26816594 82.13287365 -42.79208068 71.50639102 -37.32632446 60.87442017 C-36.57161263 59.4066425 -35.81689258 57.93886906 -35.06216431 56.47109985 C-31.58575046 49.709806 -28.11048068 42.94792824 -24.63778687 36.1847229 C-23.09205177 33.17510687 -21.54510473 30.16611487 -19.99789429 27.15725708 C-19.26936536 25.73981105 -18.5413622 24.32209465 -17.81393433 22.90408325 C-6.07003402 0.0123709 -6.07003402 0.0123709 0 0 Z M32.79867554 107.12442017 C25.3460914 121.37430043 17.93526521 135.64543962 10.55163574 149.93113708 C10.23483856 150.54406113 9.91804138 151.15698517 9.59164429 151.78848267 C9.27524994 152.40064133 8.95885559 153.01279999 8.63287354 153.64350891 C3.60939532 163.3613797 -1.4301883 173.07090972 -6.46743774 182.78164673 C-8.21104278 186.14315618 -9.95430032 189.50484558 -11.69741821 192.86660767 C-12.27596558 193.98237183 -12.85451294 195.09813599 -13.45059204 196.24771118 C-14.61332303 198.49031784 -15.77592171 200.7329931 -16.93838501 202.97573853 C-19.61592231 208.1410368 -22.29468936 213.30568044 -24.9793396 218.46728516 C-25.91049548 220.25774227 -26.84113903 222.04846479 -27.77163696 223.83926392 C-28.92428193 226.05723226 -30.07783635 228.27472836 -31.23257446 230.49160767 C-35.64877106 238.99331948 -39.91517053 247.5521123 -44.20132446 256.12442017 C6.94867554 256.12442017 58.09867554 256.12442017 110.79867554 256.12442017 C105.61391294 245.17881023 100.47312101 234.33467542 94.86117554 223.62442017 C93.89544454 221.77085191 92.93106661 219.91658344 91.96673584 218.06228638 C91.29249562 216.76594538 90.61787138 215.46980404 89.94287109 214.17385864 C86.25050954 207.08198743 82.59776039 199.96984745 78.94537354 192.85733032 C73.08066312 181.43726029 67.20188908 170.02463365 61.29867554 158.62442017 C55.48894989 147.40451659 49.70144071 136.17331307 43.92367554 124.93692017 C43.52237427 124.15655396 43.121073 123.37618774 42.70761108 122.57217407 C41.57371681 120.36702904 40.44003804 118.16177343 39.30648804 115.95645142 C38.96558136 115.2933345 38.62467468 114.63021759 38.2734375 113.94700623 C35.91701809 109.36110526 35.91701809 109.36110526 34.79867554 107.12442017 C34.13867554 107.12442017 33.47867554 107.12442017 32.79867554 107.12442017 Z " fill="#FFDD00" transform="translate(668.2013244628906,2489.8755798339844)"/>
<path d="M0 0 C1.11669571 0.00539291 1.11669571 0.00539291 2.25595093 0.01089478 C3.0363826 0.01074875 3.81681427 0.01060272 4.62089539 0.01045227 C7.21273534 0.01115158 9.80450432 0.01894481 12.39633179 0.02676392 C14.18852194 0.02862803 15.9807126 0.03005196 17.77290344 0.03105164 C22.49938351 0.03487733 27.22583305 0.04470805 31.95230103 0.05575562 C36.77153104 0.06596863 41.59076596 0.07054902 46.41000366 0.07559204 C55.87290773 0.08633027 65.3357891 0.10340731 74.79867554 0.12442017 C92.50700887 34.49942017 110.2153422 68.87442017 127.92367554 103.24942017 C128.27429047 103.93002502 128.6249054 104.61062988 128.98614502 105.31185913 C129.69458203 106.68706158 130.40301709 108.06226503 131.1114502 109.43746948 C132.88068134 112.87188028 134.6499462 116.30627371 136.41928101 119.7406311 C139.62594539 125.96499062 142.83235304 132.18948176 146.03752136 138.41461182 C153.09190528 152.11569349 160.15139422 165.81402839 167.23617554 179.49942017 C173.88370494 192.34115784 180.49948686 205.19909177 187.11013794 218.05984497 C187.48817566 218.79529541 187.86621338 219.53074585 188.25570679 220.28848267 C188.63390564 221.02425537 189.01210449 221.76002808 189.40176392 222.51809692 C193.38380233 230.26415487 197.37190892 238.00708289 201.36117554 245.74942017 C201.88418243 246.76449646 201.88418243 246.76449646 202.41775513 247.80007935 C204.17502715 251.21063919 205.93238426 254.62115518 207.68978882 258.03164673 C210.87209438 264.2074692 214.05359715 270.38370524 217.23516846 276.55990601 C219.00630536 279.99809394 220.77749299 283.43625575 222.54867554 286.87442017 C223.25700911 288.24942004 223.96534245 289.62442004 224.67367554 290.99942017 C225.02430054 291.68004517 225.37492554 292.36067017 225.73617554 293.06192017 C226.79867554 295.12442017 227.86117554 297.18692017 228.92367554 299.24942017 C229.27429047 299.93002502 229.6249054 300.61062988 229.98614502 301.31185913 C230.69458203 302.68706158 231.40301709 304.06226503 232.1114502 305.43746948 C233.88068134 308.87188028 235.6499462 312.30627371 237.41928101 315.7406311 C240.62593498 321.9649704 243.8323308 328.18944204 247.03749084 334.41455078 C253.82891717 347.60492516 260.62273136 360.79401452 267.44091797 373.97058105 C268.35183628 375.73136757 269.26214871 377.49246747 270.17245483 379.25357056 C273.15579521 385.02392103 276.14431053 390.79145072 279.14518738 396.55270386 C280.64716864 399.43772093 282.14597997 402.32437829 283.64434814 405.21127319 C284.36806572 406.60368663 285.09324877 407.99533942 285.81994629 409.38619995 C286.82566132 411.31137009 287.82637957 413.23905899 288.82601929 415.16738892 C289.4008606 416.27106812 289.9757019 417.37474731 290.56796265 418.51187134 C291.79867554 421.12442017 291.79867554 421.12442017 291.79867554 423.12442017 C260.44867554 423.12442017 229.09867554 423.12442017 196.79867554 423.12442017 C179.39673588 389.56353655 179.39673588 389.56353655 173.53256226 378.20864868 C170.57296887 372.47917576 167.60785102 366.75279221 164.62245178 361.03671265 C163.22389999 358.3582112 161.82842078 355.6781146 160.4331665 352.99789429 C159.76569536 351.71783642 159.09671364 350.43856497 158.42614746 349.16012573 C157.49702901 347.38850081 156.57350617 345.6139447 155.65023804 343.83926392 C155.12252808 342.82984741 154.59481812 341.82043091 154.05111694 340.78042603 C152.79867554 338.12442017 152.79867554 338.12442017 151.79867554 334.12442017 C73.91867554 334.45442017 -3.96132446 334.78442017 -84.20132446 335.12442017 C-94.92834529 355.80765238 -94.92834529 355.80765238 -105.63882446 376.49942017 C-106.24299194 377.66714966 -106.84715942 378.83487915 -107.46963501 380.03799438 C-110.43464457 385.76909096 -113.39680103 391.50162915 -116.35176086 397.23791504 C-117.73757029 399.92770253 -119.12467753 402.6168197 -120.51190186 405.30587769 C-121.17472618 406.59163292 -121.83690696 407.87772013 -122.49841309 409.16415405 C-123.41471173 410.94600338 -124.33335513 412.72664636 -125.25210571 414.50723267 C-125.77457886 415.52188599 -126.297052 416.53653931 -126.83535767 417.5819397 C-128.20132446 420.12442017 -128.20132446 420.12442017 -130.20132446 423.12442017 C-133.19167752 423.4104896 -135.97397885 423.50240915 -138.96548462 423.46499634 C-139.87285873 423.46543442 -140.78023285 423.4658725 -141.71510315 423.46632385 C-144.7237476 423.46422855 -147.73183948 423.44086261 -150.74038696 423.41738892 C-152.82260839 423.4117956 -154.90483376 423.40752426 -156.98706055 423.40452576 C-162.47479093 423.3930562 -167.96228415 423.36357084 -173.44992065 423.33041382 C-179.04671012 423.2997584 -184.6435378 423.28603012 -190.24038696 423.27090454 C-201.22747049 423.23870318 -212.21437778 423.18748136 -223.20132446 423.12442017 C-221.79107042 420.13086675 -220.37824273 417.13853458 -218.96499634 414.14639282 C-218.37413239 412.89204185 -218.37413239 412.89204185 -217.77133179 411.61235046 C-213.92742772 403.47993372 -209.84396032 395.48261632 -205.70132446 387.49942017 C-204.91983577 385.98737852 -204.13867509 384.4751673 -203.3578186 382.96279907 C-201.75784172 379.86485048 -200.15627771 376.76773101 -198.55337524 373.67129517 C-195.25516462 367.29817703 -191.97202285 360.91730876 -188.68783569 354.53695679 C-186.93416309 351.13072809 -185.17901599 347.72525939 -183.42398071 344.31973267 C-180.57659241 338.79422316 -177.73035061 333.26812463 -174.88491821 327.74160767 C-168.18942515 314.73821749 -161.48790221 301.73805512 -154.76382446 288.74942017 C-148.11629506 275.9076825 -141.50051314 263.04974857 -134.88986206 250.18899536 C-134.51182434 249.45354492 -134.13378662 248.71809448 -133.74429321 247.96035767 C-133.36609436 247.22458496 -132.98789551 246.48881226 -132.59823608 245.73074341 C-128.61619767 237.98468547 -124.62809108 230.24175745 -120.63882446 222.49942017 C-120.2901532 221.82270264 -119.94148193 221.14598511 -119.58224487 220.44876099 C-117.82497285 217.03820114 -116.06761574 213.62768516 -114.31021118 210.2171936 C-111.12790562 204.04137113 -107.94640285 197.86513509 -104.76483154 191.68893433 C-102.99369464 188.25074639 -101.22250701 184.81258459 -99.45132446 181.37442017 C-98.74299089 179.99942029 -98.03465755 178.62442029 -97.32632446 177.24942017 C-76.07632451 135.99942026 -76.07632451 135.99942026 -75.01385498 133.9369812 C-74.30541797 132.56177875 -73.59698291 131.1865753 -72.8885498 129.81137085 C-71.11931866 126.37696005 -69.3500538 122.94256663 -67.58071899 119.50820923 C-64.37405461 113.28384971 -61.16764696 107.05935857 -57.96247864 100.83422852 C-50.30866639 85.96893228 -42.64664414 71.108032 -34.95718384 56.26113892 C-31.43899398 49.46404098 -27.93350439 42.66060096 -24.43960571 35.85098267 C-24.03490555 35.06256989 -23.63020538 34.2741571 -23.21324158 33.46185303 C-21.23289368 29.60373598 -19.25399039 25.74489185 -17.27774048 21.88467407 C-6.06470697 0.01236004 -6.06470697 0.01236004 0 0 Z M32.79867554 107.12442017 C25.3460914 121.37430043 17.93526521 135.64543962 10.55163574 149.93113708 C10.23483856 150.54406113 9.91804138 151.15698517 9.59164429 151.78848267 C9.27524994 152.40064133 8.95885559 153.01279999 8.63287354 153.64350891 C3.60939532 163.3613797 -1.4301883 173.07090972 -6.46743774 182.78164673 C-8.21104278 186.14315618 -9.95430032 189.50484558 -11.69741821 192.86660767 C-12.27596558 193.98237183 -12.85451294 195.09813599 -13.45059204 196.24771118 C-14.61332303 198.49031784 -15.77592171 200.7329931 -16.93838501 202.97573853 C-19.61592231 208.1410368 -22.29468936 213.30568044 -24.9793396 218.46728516 C-25.91049548 220.25774227 -26.84113903 222.04846479 -27.77163696 223.83926392 C-28.92428193 226.05723226 -30.07783635 228.27472836 -31.23257446 230.49160767 C-35.64877106 238.99331948 -39.91517053 247.5521123 -44.20132446 256.12442017 C6.94867554 256.12442017 58.09867554 256.12442017 110.79867554 256.12442017 C105.61391294 245.17881023 100.47312101 234.33467542 94.86117554 223.62442017 C93.89544454 221.77085191 92.93106661 219.91658344 91.96673584 218.06228638 C91.29249562 216.76594538 90.61787138 215.46980404 89.94287109 214.17385864 C86.25050954 207.08198743 82.59776039 199.96984745 78.94537354 192.85733032 C73.08066312 181.43726029 67.20188908 170.02463365 61.29867554 158.62442017 C55.48894989 147.40451659 49.70144071 136.17331307 43.92367554 124.93692017 C43.52237427 124.15655396 43.121073 123.37618774 42.70761108 122.57217407 C41.57371681 120.36702904 40.44003804 118.16177343 39.30648804 115.95645142 C38.96558136 115.2933345 38.62467468 114.63021759 38.2734375 113.94700623 C35.91701809 109.36110526 35.91701809 109.36110526 34.79867554 107.12442017 C34.13867554 107.12442017 33.47867554 107.12442017 32.79867554 107.12442017 Z " fill="#FFDD00" transform="translate(1671.2013244628906,2489.8755798339844)"/>
<path d="M0 0 C1.39738555 0.00384569 2.79476715 0.00949843 4.19213867 0.0168457 C4.89486908 0.01866852 5.59759949 0.02049133 6.32162476 0.02236938 C52.1688908 0.22319853 86.94240864 18.27928712 118.81713867 50.3293457 C125.88335658 57.5425963 125.88335658 57.5425963 127.81713867 61.3293457 C127.43866499 66.3064981 126.21798314 70.20755899 124.09448242 74.70043945 C123.55629883 75.85092773 123.01811523 77.00141602 122.46362305 78.18676758 C121.61767578 79.95890625 121.61767578 79.95890625 120.75463867 81.7668457 C120.18021708 82.98714725 119.60664143 84.20784738 119.03393555 85.42895508 C117.63659452 88.39977255 116.23080583 91.36627136 114.81713867 94.3293457 C111.74892892 93.72540393 109.74291244 92.77605671 107.23510742 90.9230957 C106.55730225 90.4305127 105.87949707 89.93792969 105.18115234 89.43041992 C104.10377808 88.63788818 104.10377808 88.63788818 103.00463867 87.8293457 C94.05005489 81.36747468 84.8017913 75.11211758 74.81713867 70.3293457 C74.2834668 71.04477539 73.74979492 71.76020508 73.19995117 72.49731445 C67.88471501 79.60575313 62.50672773 86.66212895 57.08325195 93.68823242 C54.99146661 96.399567 52.9045331 99.11463023 50.81713867 101.8293457 C49.98382894 102.91269719 49.1504956 103.99603052 48.31713867 105.0793457 C47.90463867 105.6155957 47.49213867 106.1518457 47.06713867 106.7043457 C-56.68286133 241.5793457 -56.68286133 241.5793457 -57.93334961 243.20483398 C-58.7652442 244.28639448 -59.59695046 245.36809985 -60.4284668 246.44995117 C-62.53227925 249.18663788 -64.6394746 251.92059847 -66.75317383 254.6496582 C-67.18114258 255.20331055 -67.60911133 255.75696289 -68.05004883 256.32739258 C-69.22089682 257.841859 -70.39322614 259.35517987 -71.56567383 260.8684082 C-72.15640182 261.67319249 -72.15640182 261.67319249 -72.75906372 262.49423504 C-74.18286133 264.3293457 -74.18286133 264.3293457 -76.15328979 266.43909168 C-83.42255683 274.89545372 -83.30982523 282.83054919 -83.18286133 293.37695312 C-83.19047917 295.18152603 -83.20160786 296.98608697 -83.21595764 298.7906189 C-83.24483336 303.66009749 -83.22494681 308.52827137 -83.19594193 313.39770293 C-83.17397823 318.497331 -83.19736031 323.59675228 -83.21582031 328.69636536 C-83.24389644 338.33993791 -83.23151284 347.98301194 -83.20439625 357.62657005 C-83.1700837 370.66717466 -83.19866939 383.70763409 -83.22363091 396.74823475 C-83.26127331 417.27553018 -83.21522326 437.80176481 -83.18286133 458.3293457 C-113.21286133 458.3293457 -143.24286133 458.3293457 -174.18286133 458.3293457 C-174.09262695 445.32786133 -174.00239258 432.32637695 -173.90942383 418.9309082 C-173.88348152 410.67301485 -173.86110474 402.41536402 -173.85473633 394.1574707 C-173.8439789 381.06219348 -173.81905496 367.96808721 -173.69946289 354.87329102 C-173.61240863 345.33388531 -173.57531964 335.79577046 -173.59658945 326.25596941 C-173.60613667 321.2106731 -173.59178248 316.16815609 -173.51744461 311.12334061 C-172.13278863 284.71308946 -172.13278863 284.71308946 -183.82193947 262.19642067 C-185.01674058 261.07172108 -186.23271926 259.96895049 -187.47202682 258.89348984 C-190.20962941 256.39061477 -192.24563935 253.50674168 -194.43286133 250.5168457 C-195.22176758 249.48946289 -196.01067383 248.46208008 -196.82348633 247.40356445 C-197.60208008 246.38907227 -198.38067383 245.37458008 -199.18286133 244.3293457 C-200.84895386 242.16223723 -202.51591332 239.99579617 -204.18286133 237.8293457 C-205.01621038 236.74602446 -205.84954374 235.66269115 -206.68286133 234.5793457 C-207.30161133 233.7749707 -207.30161133 233.7749707 -207.93286133 232.9543457 C-232.51619466 200.99601237 -257.09952799 169.03767904 -281.68286133 137.0793457 C-282.09511963 136.54341797 -282.50737793 136.00749023 -282.93212891 135.45532227 C-283.76793509 134.36875791 -284.60370968 133.28216925 -285.43945312 132.19555664 C-287.48469769 129.53646023 -289.53056124 126.87784631 -291.57739258 124.2199707 C-296.8518217 117.36917746 -302.1091168 110.50550662 -307.35913086 103.63598633 C-312.28671524 97.18987476 -317.23229136 90.75781828 -322.18286133 84.3293457 C-323.84981425 82.16289919 -325.51633546 79.99612073 -327.18286133 77.8293457 C-328.0161868 76.74600632 -328.84952012 75.66267298 -329.68286133 74.5793457 C-331.34952799 72.41267904 -333.01619466 70.24601237 -334.68286133 68.0793457 C-335.30209473 67.27436646 -335.30209473 67.27436646 -335.93383789 66.453125 C-336.76397899 65.37390912 -337.59405751 64.29464509 -338.42407227 63.21533203 C-340.55572612 60.44359594 -342.68858733 57.67280199 -344.82348633 54.90356445 C-346.52131218 52.70105624 -348.21667523 50.49669579 -349.90942383 48.2902832 C-351.31597657 46.45838118 -352.72662302 44.62960456 -354.14379883 42.8059082 C-354.69293945 42.09176758 -355.24208008 41.37762695 -355.80786133 40.6418457 C-356.27450195 40.03985352 -356.74114258 39.43786133 -357.22192383 38.81762695 C-358.18286133 37.3293457 -358.18286133 37.3293457 -358.18286133 35.3293457 C-344.58776557 34.93428986 -330.99404847 34.63282683 -317.39436817 34.44853878 C-311.0780607 34.36005337 -304.76569723 34.2402089 -298.45166016 34.046875 C-292.34990385 33.86122485 -286.25192189 33.76033476 -280.14755821 33.71643257 C-277.82714085 33.68517995 -275.50691526 33.62413826 -273.18811989 33.53193474 C-255.50999679 32.85738321 -255.50999679 32.85738321 -249.93949318 36.99610138 C-245.99581412 40.98724954 -243.05537832 45.46975018 -240.31826401 50.34583855 C-238.86312706 52.88790983 -237.14606448 55.17338775 -235.34301758 57.4777832 C-234.30884237 58.88544634 -233.2762527 60.2942759 -232.24536133 61.7043457 C-231.06962409 63.30594052 -229.8938415 64.90750203 -228.71801758 66.5090332 C-228.1342334 67.30535156 -227.55044922 68.10166992 -226.94897461 68.92211914 C-224.03345402 72.89599709 -221.10768164 76.86231047 -218.18286133 80.8293457 C-217.01614469 82.41264221 -215.84947804 83.99597556 -214.68286133 85.5793457 C-214.10536133 86.3630957 -213.52786133 87.1468457 -212.93286133 87.9543457 C-165.68286133 152.0793457 -165.68286133 152.0793457 -163.93237305 154.45507812 C-162.76742284 156.03603553 -161.60238399 157.61692762 -160.43725586 159.19775391 C-157.49359153 163.19190398 -154.55154787 167.18723001 -151.61254883 171.18481445 C-144.19131161 181.27505751 -136.7180172 191.32387317 -129.18286133 201.3293457 C-125.20565276 197.69631864 -122.27770731 193.45182534 -119.18286133 189.0793457 C-114.93338215 183.1341465 -110.64746482 177.22504002 -106.24536133 171.3918457 C-100.08884736 163.22493749 -94.02315442 154.99278095 -87.96508789 146.75268555 C-85.04055387 142.77612052 -82.11150699 138.80288299 -79.18286133 134.8293457 C-78.01617245 133.24602874 -76.84950579 131.6626954 -75.68286133 130.0793457 C-64.01619466 114.24601237 -52.34952799 98.41267904 -40.68286133 82.5793457 C-40.1049585 81.79503174 -39.52705566 81.01071777 -38.93164062 80.20263672 C-37.76910964 78.62495087 -36.60651236 77.04731387 -35.44384766 75.46972656 C-32.46334977 71.42539191 -29.48413374 67.38012273 -26.50708008 63.33325195 C-20.10607492 54.63447194 -13.68771325 45.9508558 -7.18286133 37.3293457 C-11.05695063 35.65130326 -14.87728763 34.61947319 -18.99536133 33.7043457 C-20.15680664 33.44395508 -21.31825195 33.18356445 -22.51489258 32.9152832 C-23.83553711 32.62524414 -23.83553711 32.62524414 -25.18286133 32.3293457 C-22.4749251 25.41751945 -19.59897481 18.60089172 -16.55786133 11.8293457 C-16.1634082 10.93731445 -15.76895508 10.0452832 -15.36254883 9.1262207 C-14.98098633 8.27543945 -14.59942383 7.4246582 -14.20629883 6.5480957 C-13.86518066 5.78432617 -13.5240625 5.02055664 -13.17260742 4.23364258 C-10.29251389 -1.30773126 -5.58176568 0.04078352 0 0 Z " fill="#FFDD00" transform="translate(3848.182861328125,2454.670654296875)"/>
<path d="M0 0 C55.44 0 110.88 0 168 0 C161.67105134 28.48026895 146.31114463 56.60766862 126.15625 77.703125 C123.94922603 79.9903711 123.94922603 79.9903711 121.9453125 82.58984375 C119.02311346 86.21031927 115.56128697 89.02607807 112 92 C111.2575 92.63035156 110.515 93.26070312 109.75 93.91015625 C78.64459862 119.64373667 39.91371974 131 0 131 C0 87.77 0 44.54 0 0 Z " fill="#FFDD00" transform="translate(2498,1521)"/>
<path d="M0 0 C0.65097656 1.03511719 1.30195313 2.07023437 1.97265625 3.13671875 C2.77751826 4.33929709 3.58358133 5.54107216 4.390625 6.7421875 C5.01976807 7.72711182 5.01976807 7.72711182 5.66162109 8.73193359 C8.1972842 12.59447054 11.01979234 16.24966671 13.78515625 19.94921875 C14.98742359 21.5820488 16.18792428 23.21618103 17.38671875 24.8515625 C20.97400097 29.74112989 24.56481987 34.62807008 28.16015625 39.51171875 C29.03365723 40.69822021 29.03365723 40.69822021 29.92480469 41.90869141 C34.07724869 47.54182482 38.26772348 53.14526047 42.47460938 58.73779297 C46.56550139 64.18273191 50.61849129 69.65515878 54.66015625 75.13671875 C55.26472656 75.95591797 55.86929688 76.77511719 56.4921875 77.61914062 C57.33716797 78.76672852 57.33716797 78.76672852 58.19921875 79.9375 C58.6988916 80.61594971 59.19856445 81.29439941 59.71337891 81.9934082 C60.85728878 83.57785227 61.95114762 85.19820581 63.03515625 86.82421875 C65.72202937 87.29789532 65.72202937 87.29789532 68.78515625 87.32421875 C74.62902959 87.68114994 78.48178413 88.600314 82.97265625 92.51171875 C84.59298411 96.03831469 83.94633843 99.12589107 83.03515625 102.82421875 C82.47828125 103.90703125 82.47828125 103.90703125 81.91015625 105.01171875 C80.64311428 107.63630568 81.23854534 109.04608824 82.03515625 111.82421875 C83.64209003 114.47563535 83.64209003 114.47563535 85.59765625 117.01171875 C89.03515625 121.62502358 89.03515625 121.62502358 89.03515625 123.82421875 C87.97296875 123.78296875 86.91078125 123.74171875 85.81640625 123.69921875 C81.37683819 123.7375588 77.13601578 124.002902 73.03515625 125.82421875 C69.54466968 129.82523754 67.91459178 134.16255852 66.08349609 139.10205078 C64.41396801 143.437225 62.4744658 147.64888081 60.57348633 151.88647461 C58.35326376 156.84806069 56.19305099 161.83528069 54.03515625 166.82421875 C55.17984375 167.00984375 55.17984375 167.00984375 56.34765625 167.19921875 C59.03515625 167.82421875 59.03515625 167.82421875 62.03515625 169.82421875 C59.87352112 176.76420523 57.14153485 183.25539444 54.03515625 189.82421875 C48.75468903 188.06406301 46.83509041 182.42033709 44.03515625 177.82421875 C36.61015625 178.81421875 36.61015625 178.81421875 29.03515625 179.82421875 C31.28515625 173.07421875 31.28515625 173.07421875 32.76171875 170.17578125 C33.07109375 169.56347656 33.38046875 168.95117188 33.69921875 168.3203125 C34.17488281 167.39412109 34.17488281 167.39412109 34.66015625 166.44921875 C34.985 165.80855469 35.30984375 165.16789062 35.64453125 164.5078125 C36.43773032 162.94474374 37.23592656 161.38421253 38.03515625 159.82421875 C40.79791802 160.34690341 43.36124385 160.93291462 46.03515625 161.82421875 C48.15521011 157.32285956 50.27307448 152.82047939 52.38891602 148.31713867 C53.10901763 146.78528025 53.82971686 145.2537026 54.55102539 143.72241211 C55.587674 141.52140663 56.62216967 139.31940055 57.65625 137.1171875 C57.9791954 136.43271042 58.30214081 135.74823334 58.63487244 135.04301453 C59.90870712 132.32577828 61.08511075 129.67435526 62.03515625 126.82421875 C52.33987803 126.6320216 42.70648193 127.22840551 33.03515625 127.82421875 C33.34259766 126.91929687 33.34259766 126.91929687 33.65625 125.99609375 C33.92566406 125.196875 34.19507812 124.39765625 34.47265625 123.57421875 C34.73949219 122.7853125 35.00632812 121.99640625 35.28125 121.18359375 C35.53003906 120.405 35.77882813 119.62640625 36.03515625 118.82421875 C36.48568359 117.86708984 36.48568359 117.86708984 36.9453125 116.890625 C37.26436849 114.5410585 37.26436849 114.5410585 35.03515625 112.1171875 C34.04895832 111.06887357 33.04764893 110.03465914 32.03515625 109.01171875 C31.49334717 108.44839844 30.95153809 107.88507812 30.39331055 107.3046875 C29.22301309 106.09372589 28.0465745 104.88867555 26.86474609 103.68896484 C25.05322735 101.84263709 23.27147766 99.97109969 21.4921875 98.09375 C-11.3263599 63.89037885 -51.20681036 48.82037258 -97.96484375 46.82421875 C-106.58138771 46.41338793 -106.58138771 46.41338793 -114.96484375 47.82421875 C-116.88228968 50.26731452 -116.88228968 50.26731452 -117.96484375 52.82421875 C-121.68270718 51.58493094 -122.515881 50.14951153 -124.90234375 47.07421875 C-128.42916098 42.64705956 -132.08985445 38.44851237 -135.96484375 34.32421875 C-141.2381182 28.69203033 -146.16211188 22.8663653 -150.96484375 16.82421875 C-152.07859375 15.43203125 -152.07859375 15.43203125 -153.21484375 14.01171875 C-154.08109375 12.92890625 -154.08109375 12.92890625 -154.96484375 11.82421875 C-152.45888311 10.57123843 -150.40673941 10.47815741 -147.61076355 10.21043396 C-145.90571152 10.04429596 -145.90571152 10.04429596 -144.16621399 9.87480164 C-142.91277695 9.75683731 -141.6593399 9.63887299 -140.36791992 9.51733398 C-139.03894956 9.38943684 -137.71001146 9.26120403 -136.38110352 9.13265991 C-132.76305806 8.78382445 -129.14453801 8.44016851 -125.52588058 8.09774661 C-122.49972506 7.81097213 -119.47379886 7.52181734 -116.44786626 7.23270184 C-109.29738316 6.54959257 -102.14649967 5.87079266 -94.99536133 5.19458008 C-87.64230719 4.49919421 -80.28998642 3.79641687 -72.93799037 3.08993953 C-66.61380256 2.48250948 -60.28916917 1.87988193 -53.96416837 1.28097683 C-50.19252515 0.92379067 -46.42107287 0.56483489 -42.65004539 0.20120049 C-39.0924206 -0.1416537 -35.53426973 -0.47844352 -31.9756546 -0.81085587 C-30.06814537 -0.99047194 -28.16120009 -1.17604707 -26.25428772 -1.3618927 C-4.58518951 -3.36488875 -4.58518951 -3.36488875 0 0 Z M72.03515625 95.82421875 C71.37515625 96.48421875 70.71515625 97.14421875 70.03515625 97.82421875 C71.39839368 99.86419065 71.39839368 99.86419065 73.03515625 101.82421875 C73.69515625 101.82421875 74.35515625 101.82421875 75.03515625 101.82421875 C75.03515625 100.17421875 75.03515625 98.52421875 75.03515625 96.82421875 C74.04515625 96.49421875 73.05515625 96.16421875 72.03515625 95.82421875 Z M63.22265625 108.82421875 C60.7422642 110.67898243 60.7422642 110.67898243 60.53515625 113.82421875 C60.84201276 116.75418453 60.84201276 116.75418453 62.16015625 118.76171875 C64.12071241 120.09071858 64.12071241 120.09071858 67.09765625 119.69921875 C70.3277104 119.07771462 70.3277104 119.07771462 72.03515625 115.82421875 C72.11738991 112.73426778 72.11738991 112.73426778 71.03515625 109.82421875 C67.96482076 107.69204133 66.75116254 107.56963873 63.22265625 108.82421875 Z " fill="#FFDD00" transform="translate(3946.96484375,2402.17578125)"/>
</svg>
